# xmcd
#
# Track frame offsets:
# 150
# 18539
# 30359
# 45293
# 62732
# 74911
# 89251
# 103730
# 122254
# 136273
# 156967
# 175040
#
# Disc length: 2557 seconds
#
#
# Revision: 0
# Processed by: cddbd v1.5.2PL0 Copyright (c) Steve Scherf et al.
# Submitted via: FreeRIP 2.945 
#
DISCID=9709fb0c
DTITLE=Fernando Goin - Hard Times
DYEAR=2007
DGENRE=Blues
TTITLE0=Milkcow blues
TTITLE1=Poor Ellen Smith
TTITLE2=Truck drivers blues
TTITLE3=Memories are made of this
TTITLE4=Blue railroad blues
TTITLE5=Hard times
TTITLE6=Roving Gambler
TTITLE7=Big Bill Blues
TTITLE8=Ring of Fire
TTITLE9=John Henry
TTITLE10=Don't let you deal go down
TTITLE11=We'll meet again
EXTD=ACQUA RECORDS - AQ152
EXTT0=
EXTT1=
EXTT2=
EXTT3=
EXTT4=
EXTT5=
EXTT6=
EXTT7=
EXTT8=
EXTT9=
EXTT10=
EXTT11=
PLAYORDER=
